<?xml version="1.0" encoding="UTF-8" standalone="no"?>
<svg
   id="illustration"
   viewBox="0 0 1024 768"
   version="1.1"
   sodipodi:docname="rightpart.svg"
   inkscape:version="1.1.2 (b8e25be8, 2022-02-05)"
   xmlns:inkscape="http://www.inkscape.org/namespaces/inkscape"
   xmlns:sodipodi="http://sodipodi.sourceforge.net/DTD/sodipodi-0.dtd"
   xmlns="http://www.w3.org/2000/svg"
   xmlns:svg="http://www.w3.org/2000/svg">
  <sodipodi:namedview
     id="namedview345"
     pagecolor="#ffffff"
     bordercolor="#666666"
     borderopacity="1.0"
     inkscape:pageshadow="2"
     inkscape:pageopacity="0.0"
     inkscape:pagecheckerboard="0"
     showgrid="false"
     inkscape:zoom="0.4923056"
     inkscape:cx="421.48616"
     inkscape:cy="339.22019"
     inkscape:window-width="1440"
     inkscape:window-height="794"
     inkscape:window-x="0"
     inkscape:window-y="25"
     inkscape:window-maximized="0"
     inkscape:current-layer="illustration" />
  <defs
     id="defs10">
    <style
       id="style2">.cls-1,.cls-10,.cls-13,.cls-15,.cls-17,.cls-19,.cls-21,.cls-22,.cls-23,.cls-25,.cls-4,.cls-6{fill:none;}.cls-2{fill:#eaf9f3;}.cls-3{clip-path:url(#clip-path);}.cls-4,.cls-6{stroke:#b8d8c7;}.cls-10,.cls-13,.cls-15,.cls-17,.cls-19,.cls-21,.cls-22,.cls-23,.cls-25,.cls-4,.cls-6{stroke-linecap:round;stroke-linejoin:round;}.cls-10,.cls-13,.cls-15,.cls-17,.cls-19,.cls-21,.cls-22,.cls-25,.cls-4{stroke-width:1.8px;}.cls-5{fill:#b8d8c7;}.cls-6{stroke-width:1.8px;}.cls-7{fill:#63737a;}.cls-8{fill:#22272e;}.cls-9{fill:#f4c2c9;}.cls-10,.cls-23{stroke:#22272e;}.cls-11{fill:#6dafa7;}.cls-12{fill:#ffe779;}.cls-13{stroke:#63737a;}.cls-14{fill:#282828;}.cls-15{stroke:#282828;}.cls-16{fill:#f8ab5d;}.cls-17{stroke:#6dafa7;}.cls-18{fill:#e26e85;}.cls-19{stroke:#fff;}.cls-20{clip-path:url(#clip-path-2);}.cls-21{stroke:#f8ab5d;}.cls-22{stroke:#f4c2c9;}.cls-23{stroke-width:1.8px;}.cls-24{fill:#fff;}.cls-25{stroke:#e26e85;}</style>
    <clipPath
       id="clip-path">
      <path
         class="cls-1"
         d="M766.3,565.3l-520-14.9a48.07,48.07,0,0,1-46.5-43.3l-25.1-248a48.18,48.18,0,0,1,47.2-53l578.8-8a48.21,48.21,0,0,1,48.5,54.1L815.5,523.1A48.1,48.1,0,0,1,766.3,565.3Z"
         id="path4" />
    </clipPath>
    <clipPath
       id="clip-path-2">
      <path
         class="cls-1"
         d="M554.8,213.9s5,1.5,15.6,1.7,22.7,3.3,27.4,9.2,6.2,49.4,5.5,69.1-14.8,49-14.8,49-33.7,3.8-61.3,2.5-34.2-7.4-36.1-9.3-3-6.5-1.9-8.5,6.5-17.5,8.5-32.4-2.2-35.7-.3-54,9-23.7,9-23.7,8.9-3,24.3-3.5A235.38,235.38,0,0,1,554.8,213.9Z"
         id="path7" />
    </clipPath>
  </defs>
  <path
     class="cls-2"
     d="M 861.15672,626.95845 118.32579,606.63161 A 68.669005,65.577916 0 0 1 51.899563,547.56102 L 16.043686,209.23518 a 68.826142,65.727979 0 0 1 67.426203,-72.3035 L 910.29785,126.01794 a 68.868998,65.768906 0 0 1 69.2832,73.80414 l -48.1411,369.56641 a 68.711861,65.618841 0 0 1 -70.28323,57.56996 z"
     id="path12"
     style="fill:#ffffff;fill-opacity:1;stroke-width:1.396" />
  <path
     class="cls-7"
     d="m 386.88775,433.92174 60.28359,-21.41823 a 6.0426439,5.7706382 0 0 0 3.857,-5.32043 v 0 l -119.71007,-8.18531 18.42793,31.64985 31.14176,3.95622 a 12.242425,11.69134 0 0 0 5.99979,-0.6821 z"
     id="path82"
     style="stroke-width:1.396" />
  <path
     class="cls-8"
     d="m 235.17881,413.04921 -10.85676,-80.89806 a 3.8284362,3.6561018 0 0 1 3.99986,-4.09266 l 144.85204,9.82235 a 4.285563,4.0926513 0 0 1 3.99985,3.81981 l 8.57112,89.08338 a 3.7998659,3.6288175 0 0 1 -4.28555,3.95624 L 238.89297,416.7326 a 4.5426969,4.3382103 0 0 1 -3.71416,-3.68339 z"
     id="path84"
     style="stroke-width:1.396" />
  <path
     class="cls-8"
     d="m 451.02834,407.3195 a 5.8997918,5.6342165 0 0 1 -3.857,5.32045 l -60.28359,21.4182 a 10.55677,10.081564 0 0 1 -4.71413,0.68212 15.070897,14.39249 0 0 1 -3.71414,-4.22908 z"
     id="path86"
     style="stroke-width:1.396" />
  <ellipse
     class="cls-7"
     cx="4.5659003"
     cy="481.81555"
     rx="8.4370174"
     ry="9.7107134"
     transform="matrix(0.81726677,-0.57625952,0.61165406,0.79112534,0,0)"
     id="ellipse88"
     style="stroke-width:1.39668;fill:#ffffff;fill-opacity:1" />
  <path
     class="cls-9"
     d="m 639.73596,46.893347 h -43.71274 l -4.42841,2.728442 a 2.1284963,2.0326834 0 0 1 -3.2856,-1.77349 v -29.60351 a 5.714084,5.4568683 0 0 1 5.71408,-5.456873 h 45.85552 a 5.714084,5.4568683 0 0 1 5.71409,5.456873 v 23.055263 a 5.9712178,5.7024274 0 0 1 -5.85694,5.593295 z"
     id="path90"
     style="fill:#ffffff;stroke-width:1.396" />
  <line
     class="cls-10"
     x1="616.30823"
     y1="26.430082"
     x2="631.59338"
     y2="26.430082"
     id="line92"
     style="fill:#cccccc" />
  <line
     class="cls-10"
     x1="616.30823"
     y1="33.933292"
     x2="625.59363"
     y2="33.933292"
     id="line94"
     style="fill:#cccccc" />
  <rect
     class="cls-10"
     x="600.59454"
     y="26.430082"
     width="7.8568654"
     height="7.5031943"
     id="rect96"
     style="fill:#cccccc" />
  <path
     class="cls-7"
     d="m 378.60233,267.76008 -241.42005,34.92397 a 9.313957,8.8946953 0 0 1 -10.71391,-8.1853 L 112.0403,86.864916 a 9.8996506,9.4540244 0 0 1 10.57106,-10.095207 l 241.84859,14.733539 a 9.3425273,8.9219798 0 0 1 8.714,8.048883 l 13.85664,158.112749 a 10.085358,9.6313727 0 0 1 -8.42826,10.0952 z"
     id="path98"
     style="stroke-width:1.396" />
  <path
     class="cls-8"
     d="m 385.17353,267.48725 -242.56288,35.06038 a 9.313957,8.8946953 0 0 1 -10.7139,-8.18531 L 117.32583,85.773547 a 9.9996471,9.5495197 0 0 1 10.71391,-10.231646 l 242.84858,14.733546 a 9.3568126,8.9356219 0 0 1 8.71397,8.185304 L 393.6018,257.25562 a 9.728228,9.2903183 0 0 1 -8.42827,10.23163 z"
     id="path100"
     style="fill:#536dfe;fill-opacity:1;stroke-width:1.396" />
  <path
     class="cls-11"
     d="m 227.03626,196.00227 -68.28332,3.54698 a 3.9712883,3.7925235 0 0 1 -4.14271,-3.54698 l -3.99986,-55.11438 a 4.0569997,3.8743766 0 0 1 3.99986,-4.09264 l 68.28331,0.40927 a 3.942718,3.7652392 0 0 1 3.99985,3.54696 l 3.99985,51.15815 a 4.0284292,3.8470922 0 0 1 -3.85698,4.09264 z"
     id="path102"
     style="fill:#f9f9f9;stroke-width:1.396" />
  <path
     class="cls-12"
     d="m 300.46222,174.72049 -57.14084,1.9099 a 3.9712883,3.7925235 0 0 1 -4.14271,-3.54696 l -2.42848,-31.78626 a 4.0569997,3.8743766 0 0 1 3.99984,-4.09265 l 57.14087,0.40927 a 4.142711,3.9562296 0 0 1 3.99985,3.54696 l 2.42848,29.46708 a 3.942718,3.7652392 0 0 1 -3.85701,4.09266 z"
     id="path104"
     style="fill:#ffffff;stroke-width:1.396" />
  <path
     class="cls-9"
     d="m 365.17423,172.67416 -48.14116,1.63706 a 3.9712883,3.7925235 0 0 1 -4.14272,-3.54697 l -2.42848,-28.78497 a 4.0569997,3.8743766 0 0 1 3.99987,-4.09266 l 48.14115,0.27285 a 4.142711,3.9562296 0 0 1 3.99985,3.54696 l 2.28563,26.87508 a 3.8998623,3.7243126 0 0 1 -3.71414,4.09265 z"
     id="path106"
     style="fill:#ffffff;stroke-width:1.396" />
  <path
     class="cls-13"
     d="m 231.32181,249.47958 -68.2833,7.09392 a 3.9570032,3.7788814 0 0 1 -4.42842,-3.54696 l -2.57134,-35.60605 a 4.0998552,3.9153031 0 0 1 3.71416,-4.09266 l 68.42615,-4.3655 a 3.9998589,3.8198079 0 0 1 4.28557,3.54696 l 2.57133,32.87764 a 4.285563,4.0926513 0 0 1 -3.71415,4.09265 z"
     id="path108"
     style="fill:#ffffff" />
  <path
     class="cls-9"
     d="m 306.89058,248.11537 -56.998,6.41182 a 3.9570032,3.7788814 0 0 1 -4.42842,-3.54696 l -4.57126,-58.79776 a 4.0141441,3.8334501 0 0 1 3.71415,-4.09266 l 57.14083,-2.59201 a 3.9712883,3.7925235 0 0 1 4.14272,3.54696 l 4.57127,54.97795 a 4.0712848,3.8880187 0 0 1 -3.57129,4.09266 z"
     id="path110"
     style="fill:#ffffff;stroke-width:1.396" />
  <path
     class="cls-11"
     d="m 295.03383,195.72943 -40.99854,2.31917 a 1.5856583,1.514281 0 0 0 -1.57136,1.77348 l 1.85706,24.28306 a 1.6570843,1.5824918 0 0 0 1.85708,1.50064 l 40.99856,-3.41055 a 1.6570843,1.5824918 0 0 0 1.57137,-1.77346 l -1.85708,-23.1917 a 1.9713591,1.8826195 0 0 0 -1.85709,-1.50064 z"
     id="path112"
     style="stroke-width:1.396;fill:#000000" />
  <path
     class="cls-12"
     d="m 370.88832,234.60962 -48.14116,5.0476 a 3.9570032,3.7788814 0 0 1 -4.42843,-3.54696 l -3.85699,-47.33834 a 4.0141441,3.8334501 0 0 1 3.71414,-4.09265 l 48.14116,-2.18275 a 3.9712883,3.7925235 0 0 1 4.14271,3.54696 l 3.857,44.47349 a 3.8570068,3.6833861 0 0 1 -3.42843,4.09265 z"
     id="path114"
     style="fill:#ffffff;stroke-width:1.396" />
  <line
     class="cls-13"
     x1="196.46588"
     y1="226.97"
     x2="197.32304"
     y2="237.0652"
     id="line116" />
  <line
     class="cls-13"
     x1="191.89461"
     y1="232.4269"
     x2="201.89426"
     y2="231.60835"
     id="line118" />
  <path
     class="cls-14"
     d="m 264.89206,238.15659 c -0.28571,-2.72844 -2.42849,-4.91119 -4.99984,-4.63835 a 5.2141018,4.9793924 0 0 0 -4.28555,5.59329 4.9426828,4.7201911 0 0 0 5.14267,4.63834 5.5426614,5.2931622 0 0 0 4.14272,-5.59328 z"
     id="path120"
     style="stroke-width:1.396" />
  <line
     class="cls-15"
     x1="273.17746"
     y1="237.33806"
     x2="299.89081"
     y2="234.74602"
     id="line122" />
  <path
     class="cls-11"
     d="m 332.60395,197.50291 a 4.8141158,4.5974115 0 0 0 -4.42842,-4.50191 c -2.28564,0.13641 -3.857,2.31916 -3.71416,4.91118 0.14286,2.592 2.14278,4.63834 4.42842,4.50191 2.28564,-0.13641 3.99986,-2.31916 3.71416,-4.91118 z"
     id="path124"
     style="stroke-width:1.396;fill:#000000" />
  <line
     class="cls-15"
     x1="339.8894"
     y1="197.09364"
     x2="362.88858"
     y2="195.72943"
     id="line126" />
  <path
     class="cls-11"
     d="m 333.88962,212.10004 c -0.28571,-2.59202 -2.14278,-4.50192 -4.42841,-4.36549 -2.28564,0.13641 -3.85701,2.45558 -3.71417,5.0476 0.14285,2.59201 2.28563,4.63834 4.42842,4.36549 a 4.6141228,4.4064212 0 0 0 3.71416,-5.0476 z"
     id="path128"
     style="stroke-width:1.396;fill:#000000" />
  <line
     class="cls-15"
     x1="341.0322"
     y1="211.55434"
     x2="364.17426"
     y2="209.78087"
     id="line130" />
  <path
     class="cls-11"
     d="m 335.17529,226.69715 c -0.2857,-2.59201 -2.14278,-4.50192 -4.42841,-4.36549 -2.28565,0.13642 -3.85702,2.45559 -3.71417,5.0476 0.14286,2.59202 2.28563,4.50192 4.42841,4.3655 a 4.7284046,4.5155585 0 0 0 3.71417,-5.04761 z"
     id="path132"
     style="stroke-width:1.396;fill:#000000" />
  <line
     class="cls-15"
     x1="342.31787"
     y1="226.01506"
     x2="365.31708"
     y2="223.83231"
     id="line134" />
  <path
     class="cls-12"
     d="m 174.46666,158.89557 -9.28536,0.13643 a 1.8285069,1.7461978 0 0 1 -1.71424,-1.50064 l -0.71426,-9.27669 a 1.6570843,1.5824918 0 0 1 1.71422,-1.63705 h 9.28539 a 1.8285069,1.7461978 0 0 1 1.71424,1.50064 l 0.71425,9.14024 a 1.9713591,1.8826195 0 0 1 -1.71424,1.63707 z"
     id="path136"
     style="stroke-width:1.396;fill:#000000" />
  <line
     class="cls-15"
     x1="184.46629"
     y1="146.61761"
     x2="216.60805"
     y2="146.4812"
     id="line138" />
  <line
     class="cls-15"
     x1="185.03772"
     y1="154.53009"
     x2="217.17947"
     y2="154.25723"
     id="line140" />
  <path
     class="cls-14"
     d="m 328.60409,156.71282 -7.28547,0.13643 a 1.2285281,1.1732266 0 0 1 -0.99996,-0.81853 l -0.71425,-8.86742 a 0.97139429,0.92766762 0 0 1 0.99996,-0.95495 h 7.28546 a 1.2285281,1.1732266 0 0 1 0.99996,0.81853 l 0.71427,8.73099 a 1.0713908,1.0231628 0 0 1 -0.99997,0.95495 z"
     id="path142"
     style="stroke-width:1.396" />
  <line
     class="cls-15"
     x1="335.46094"
     y1="146.07193"
     x2="359.31726"
     y2="146.07193"
     id="line144" />
  <line
     class="cls-15"
     x1="336.1752"
     y1="153.02943"
     x2="359.88867"
     y2="152.75658"
     id="line146" />
  <line
     class="cls-15"
     x1="321.0329"
     y1="164.35243"
     x2="360.74582"
     y2="163.39749"
     id="line148" />
  <path
     class="cls-12"
     d="m 176.03804,180.04093 -9.28539,0.27284 a 1.7142252,1.6370605 0 0 1 -1.71422,-1.50063 l -0.71425,-9.27668 a 1.6142288,1.5415654 0 0 1 1.57137,-1.63706 l 9.28538,-0.27284 a 1.8285069,1.7461978 0 0 1 1.71423,1.50063 l 0.71426,9.14026 a 1.7570809,1.6779871 0 0 1 -1.57138,1.77348 z"
     id="path150"
     style="stroke-width:1.396;fill:#000000" />
  <line
     class="cls-15"
     x1="186.03769"
     y1="167.49014"
     x2="218.17944"
     y2="166.6716"
     id="line152" />
  <line
     class="cls-15"
     x1="186.60912"
     y1="175.53902"
     x2="218.75081"
     y2="174.58406"
     id="line154" />
  <path
     class="cls-11"
     d="m 199.4658,114.01282 -48.14118,-1.36421 a 3.0856054,2.9467089 0 0 1 -2.99988,-2.72844 l -0.57141,-7.23034 a 3.0427499,2.9057823 0 0 1 3.14274,-3.137699 l 48.14117,1.909899 a 3.0856054,2.9467089 0 0 1 2.99988,2.72843 l 0.57142,6.68466 a 3.1141758,2.9739932 0 0 1 -3.14274,3.1377 z"
     id="path156"
     style="stroke-width:1.396;fill:#ffffff" />
  <line
     class="cls-15"
     x1="248.17834"
     y1="146.34477"
     x2="293.60532"
     y2="146.20834"
     id="line158" />
  <line
     class="cls-15"
     x1="248.74974"
     y1="153.98439"
     x2="294.1767"
     y2="153.43869"
     id="line160" />
  <line
     class="cls-15"
     x1="249.60686"
     y1="165.9895"
     x2="274.03455"
     y2="165.44382"
     id="line162" />
  <path
     class="cls-7"
     d="m 363.74571,113.33072 a 4.285563,4.0926513 0 0 0 -3.57131,-3.95623 c -1.71422,-0.13642 -3.14274,1.63705 -2.85704,3.68338 a 4.0712848,3.8880187 0 0 0 3.5713,3.95623 c 1.71423,0.13642 2.9999,-1.63706 2.85705,-3.68338 z"
     id="path164"
     style="stroke-width:1.396" />
  <path
     class="cls-7"
     d="m 351.03187,112.92145 a 4.1998518,4.0107982 0 0 0 -3.5713,-3.95623 c -1.85709,-0.13643 -3.14275,1.63706 -2.9999,3.81981 a 4.1855666,3.997156 0 0 0 3.71416,3.95624 c 1.71423,0 2.99988,-1.7735 2.85704,-3.81982 z"
     id="path166"
     style="stroke-width:1.396" />
  <path
     class="cls-7"
     d="m 337.88948,112.37577 a 4.4712707,4.2699995 0 0 0 -3.71417,-4.09265 c -1.85706,-0.13642 -3.28558,1.63705 -3.14273,3.8198 a 4.4712707,4.2699995 0 0 0 3.71415,4.09265 c 1.99992,0.13642 3.28559,-1.63705 3.14275,-3.8198 z"
     id="path168"
     style="stroke-width:1.396" />
  <path
     class="cls-16"
     d="m 421.74366,131.20196 -63.42633,-1.09137 a 4.8569713,4.6383381 0 0 1 -4.85697,-4.36549 l -5.71409,-66.71022 a 3.8998623,3.7243126 0 0 1 4.14271,-3.95624 l 63.71203,6.411836 a 4.899827,4.6792646 0 0 1 4.42842,4.365487 l 5.57123,61.253347 a 3.871292,3.6970284 0 0 1 -3.857,4.09265 z"
     id="path170"
     style="stroke-width:1.396;fill:#1a1a1a" />
  <path
     class="cls-12"
     d="m 425.17211,130.11059 -63.42633,-1.09137 a 4.8569713,4.6383381 0 0 1 -4.85699,-4.3655 l -5.71408,-66.710215 a 3.8998623,3.7243126 0 0 1 4.14272,-3.956239 l 63.71204,6.411836 a 4.899827,4.6792646 0 0 1 4.42841,4.365487 l 5.57123,61.253351 a 3.9570032,3.7788814 0 0 1 -3.857,4.09265 z"
     id="path172"
     style="fill:#6c63ff;fill-opacity:0.627451;stroke-width:1.396" />
  <line
     class="cls-13"
     x1="378.88803"
     y1="66.401634"
     x2="412.45828"
     y2="69.402916"
     id="line174"
     style="fill:#8dffff;fill-opacity:0.49392712;stroke:#ffffff;stroke-opacity:1" />
  <line
     class="cls-13"
     x1="379.45941"
     y1="72.94989"
     x2="413.02969"
     y2="75.678314"
     id="line176"
     style="fill:#000000;stroke:#ffffff;stroke-opacity:1" />
  <line
     class="cls-13"
     x1="380.74509"
     y1="87.956253"
     x2="414.45816"
     y2="90.139023"
     id="line178"
     style="stroke:#ffffff;stroke-opacity:1" />
  <line
     class="cls-13"
     x1="381.31653"
     y1="94.368095"
     x2="414.88669"
     y2="96.278"
     id="line180"
     style="stroke:#ffffff;stroke-opacity:1" />
  <line
     class="cls-13"
     x1="382.74496"
     y1="109.51089"
     x2="416.31531"
     y2="110.87513"
     id="line182"
     style="stroke:#ffffff;stroke-opacity:1" />
  <line
     class="cls-13"
     x1="383.31641"
     y1="115.92274"
     x2="416.88663"
     y2="117.01411"
     id="line184"
     style="stroke:#ffffff;stroke-opacity:1" />
  <polyline
     class="cls-17"
     points="420.6 157.1 421.8 158.6 423.5 156.3"
     id="polyline186"
     transform="matrix(1.4285211,0,0,1.3642172,-233.51893,-144.23348)"
     style="stroke:#000000;stroke-opacity:1" />
  <polyline
     class="cls-17"
     points="421.9 173.1 423.1 174.5 424.9 172.2"
     id="polyline188"
     transform="matrix(1.4285211,0,0,1.3642172,-233.51893,-144.23348)"
     style="stroke:#000000;stroke-opacity:1" />
  <polyline
     class="cls-17"
     points="423.2 188.8 424.5 190.2 426.2 187.8"
     id="polyline190"
     transform="matrix(1.4285211,0,0,1.3642172,-233.51893,-144.23348)"
     style="fill:#666666;stroke:#001e17;stroke-opacity:1" />
  <path
     class="cls-9"
     d="m 451.88545,227.10643 c 0,0 -8.85683,17.5984 -9.57109,28.78498 -0.71425,11.18658 11.71388,56.06932 31.99887,90.31116 0,0 19.14218,-6.00255 19.14218,-11.59583 0,-5.5933 -11.28531,-71.75783 -10.57106,-73.66774 0.71427,-1.9099 8.57113,-15.96133 8.57113,-21.96389 0,-6.00255 -36.57013,-18.41692 -39.57003,-11.86868 z"
     id="path192"
     style="stroke-width:1.396" />
  <path
     class="cls-18"
     d="m 491.45548,238.97511 c 0,-6.00255 -36.42729,-18.41692 -39.42718,-11.86868 0,0 -1.14281,2.45558 -2.71418,6.00255 11.57101,8.59457 23.99915,15.96133 38.1415,18.41694 1.99993,-4.3655 3.99986,-9.54953 3.99986,-12.55081 z"
     id="path194"
     style="stroke-width:1.396" />
  <path
     class="cls-11"
     d="m 489.88411,152.34733 c 0,0 -14.28521,4.63834 -25.14197,28.10286 -10.85676,23.46455 -22.42778,43.10926 -22.42778,43.10926 0,0 17.85651,16.9163 40.71285,25.51086 22.85633,8.86741 23.71346,-94.54024 6.8569,-96.72298 z"
     id="path196"
     style="fill:#536dfe;fill-opacity:1;stroke-width:1.396" />
  <path
     class="cls-15"
     d="m 446.31422,216.60195 c 0,0 24.4277,19.09904 47.14119,27.42076"
     id="path198" />
  <path
     class="cls-9"
     d="m 537.59671,661.20031 c 0,0 -1.28568,28.64854 -0.99996,31.37698 0.2857,2.72843 -9.99965,8.59457 -22.71349,8.1853 -12.71383,-0.40926 -13.85664,-3.95622 -13.85664,-3.95622 0,0 -2.85705,-30.96772 -3.14275,-35.33322 -0.28571,-4.3655 38.14151,-6.13899 40.71284,-0.27284 z"
     id="path200"
     style="stroke-width:1.396" />
  <path
     class="cls-8"
     d="m 536.88245,677.70732 c 0.2857,-8.1853 0.71426,-16.50701 0.71426,-16.50701 -2.57133,-5.86615 -40.99855,-4.09266 -40.71284,0.27284 0.14284,2.04632 0.85711,9.68594 1.42851,17.32554 11.28532,5.32045 26.14194,3.95623 38.57007,-1.09137 z"
     id="path202"
     style="stroke-width:1.396" />
  <path
     class="cls-8"
     d="m 536.59675,691.75876 c 0,0 1.14283,8.04889 1.57137,16.77987 0.42856,8.73099 1.85708,24.69233 0.28571,27.42077 -1.57138,2.72843 -10.28536,5.0476 -30.71321,6.54824 -20.42786,1.50064 -39.28433,0.13641 -42.56992,-2.31918 -3.28561,-2.45559 -2.28564,-6.13898 0.85711,-9.00382 3.14275,-2.86486 15.57088,-15.55207 20.71355,-20.7361 6.71405,-6.82109 11.57102,-13.7786 11.57102,-14.59713 0.42856,-3.27412 1.14282,-3.27412 1.14282,-3.27412 0,0 0.85711,2.04633 1.99993,1.9099 1.14281,-0.13641 2.71419,-6.27539 9.5711,-4.77475 6.8569,1.50064 9.71393,6.00256 12.28528,6.00256 2.57132,0 9.57109,-0.95496 13.28524,-3.95624 z"
     id="path204"
     style="stroke-width:1.396" />
  <path
     class="cls-9"
     d="m 591.16625,666.93002 c 0,0 3.85701,29.46707 4.57127,31.24056 0.71426,1.77348 7.85686,6.68466 18.99934,6.13898 11.14246,-0.54569 15.42801,-3.68339 15.85656,-4.3655 0.42856,-0.6821 -0.28569,-34.37826 -0.5714,-36.561 -0.28571,-2.18275 -36.28443,-1.63707 -38.85577,3.54696 z"
     id="path206"
     style="stroke-width:1.396" />
  <path
     class="cls-8"
     d="m 630.45058,678.52586 c -0.14285,-7.5032 -0.42856,-14.46071 -0.57141,-15.41566 -0.42856,-2.18275 -36.14158,-1.50064 -38.85578,3.68339 0,0 0.85712,6.54825 1.85709,13.64217 a 66.997636,63.981781 0 0 0 37.5701,-1.9099 z"
     id="path208"
     style="stroke-width:1.396" />
  <path
     class="cls-8"
     d="m 595.16611,695.57857 a 35.241614,33.655236 0 0 0 -0.2857,6.41181 c 0.14285,1.77349 0.2857,4.22908 0.2857,7.23036 0.14284,6.2754 0.71425,27.96644 2.28562,31.10415 1.57138,3.1377 19.57075,5.72971 33.14169,5.86612 13.57095,0.13644 23.5706,-3.27411 25.14198,-6.82108 1.57136,-3.54696 0.71425,-8.73098 -3.99987,-14.46069 -4.7141,-5.72971 -15.57087,-14.59713 -16.85653,-18.8262 a 67.797606,64.745743 0 0 0 -4.14272,-10.50447 9.3996682,8.9765484 0 0 1 -3.85701,3.00127 c -1.85706,0.54569 -4.57126,-6.82108 -10.4282,-7.09393 -5.85693,-0.27283 -8.42827,1.90991 -12.14244,7.09393 a 12.999541,12.414375 0 0 1 -9.14252,-3.00127 z"
     id="path210"
     style="stroke-width:1.396" />
  <path
     class="cls-8"
     d="m 469.88482,311.1422 a 303.30358,289.65057 0 0 0 -5.14268,34.92394 c -1.71422,20.054 4.28557,144.33418 5.14268,154.02013 0.8571,9.68593 4.14271,64.93672 7.85686,91.8118 2.9999,22.10032 0.85712,66.71021 7.85688,72.98562 6.99973,6.2754 28.42755,9.68595 41.71279,6.2754 13.28526,-3.41055 19.4279,-9.68594 20.99927,-14.86997 1.57137,-5.18403 -4.71412,-44.6099 -4.28556,-64.66389 0.42855,-20.054 0,-79.26102 -0.71427,-93.31245 0,0 5.85693,-71.75782 12.85669,-88.12843 6.99977,-16.37061 17.14225,-76.66899 -2.28563,-94.13097 -19.71359,-17.46198 -82.28282,-7.77604 -83.99703,-4.91118 z"
     id="path212"
     style="stroke-width:1.396" />
  <path
     class="cls-8"
     d="m 501.16943,319.05466 c 0,0 -0.14286,27.01148 0.99997,47.20191 a 121.58141,116.10852 0 0 0 2.14278,18.28051 c 3.5713,14.18786 11.28531,15.27922 17.14224,18.55335 5.85693,3.27412 26.8562,83.62651 35.42732,104.49902 0,0 6.57119,48.02045 11.71389,76.669 5.14267,28.64857 4.28556,63.29968 8.14255,75.16836 3.85702,11.8687 26.42765,14.18786 37.42725,13.23292 10.99962,-0.95496 25.71338,-5.04762 25.28482,-17.32557 -0.42855,-12.27795 -2.57133,-47.20189 -4.42841,-76.94183 -1.85708,-29.73994 -5.42838,-74.07699 -6.28549,-84.44505 0,0 -4.28555,-49.1118 -6.5712,-74.34982 -2.28563,-25.23802 -0.99996,-51.02172 -4.42842,-94.54025 -3.71416,-43.65494 -116.71016,-30.28562 -116.5673,-6.00255 z"
     id="path214"
     style="stroke-width:1.396" />
  <path
     class="cls-13"
     d="m 502.1694,366.25657 a 121.58141,116.10852 0 0 0 2.14278,18.28051 c 3.5713,14.18786 11.28531,15.27922 17.14224,18.55335 5.85693,3.27412 26.8562,83.62651 35.42732,104.49902"
     id="path216" />
  <path
     class="cls-13"
     d="m 521.45442,403.09043 c 0,0 -16.71369,-8.18531 -24.142,-5.18403"
     id="path218" />
  <path
     class="cls-13"
     d="m 504.16932,680.84502 a 13.656661,13.041916 0 0 1 0,-4.09265"
     id="path224" />
  <path
     class="cls-13"
     d="m 516.02604,682.61851 v -5.86614"
     id="path226" />
  <path
     class="cls-13"
     d="m 530.4541,679.89007 c 0,0 0.14286,-3.41055 0,-4.91118"
     id="path228" />
  <path
     class="cls-13"
     d="m 599.02311,681.66355 c 0,0 -0.71425,-3.68338 -0.71425,-4.77475"
     id="path230" />
  <path
     class="cls-13"
     d="m 613.30833,682.20924 a 42.998482,41.062934 0 0 0 0,-5.86613"
     id="path232" />
  <path
     class="cls-13"
     d="m 625.5936,680.0265 a 25.956227,24.787823 0 0 0 0,-4.63835"
     id="path234" />
  <path
     class="cls-19"
     d="m 490.74122,708.40221 c 0,0 10.85675,-8.32172 32.14172,3.1377"
     id="path236" />
  <path
     class="cls-19"
     d="m 482.59865,718.90669 c 0,0 13.4281,-10.23164 33.42739,2.18275"
     id="path238" />
  <path
     class="cls-19"
     d="m 638.16459,714.40477 c 0,0 -12.99954,-5.45687 -30.57035,3.41055"
     id="path240" />
  <path
     class="cls-19"
     d="m 644.02153,723.68144 c 0,0 -14.99947,-6.2754 -33.14169,5.04761"
     id="path242" />
  <path
     class="cls-12"
     d="m 559.02453,147.57257 c 0,0 7.14261,2.04632 22.28493,2.31917 15.14232,0.27284 32.42742,4.50192 39.14148,12.55079 6.71405,8.04888 8.85682,67.39232 7.85685,94.2674 -0.99996,26.87508 -21.14209,66.84664 -21.14209,66.84664 0,0 -48.14117,5.18403 -87.56835,3.41055 -39.42718,-1.7735 -48.85543,-10.09521 -51.56961,-12.68723 -2.71419,-2.59201 -4.28556,-8.86741 -2.71419,-11.59584 1.57138,-2.72843 9.28539,-23.87381 12.14242,-44.20063 2.85706,-20.32683 -3.14274,-48.70255 -0.42856,-73.66773 2.71419,-24.96516 12.8567,-32.33194 12.8567,-32.33194 0,0 12.71383,-4.09265 34.71305,-4.77476 a 336.24527,321.10942 0 0 1 34.42737,-0.13642 z"
     id="path244"
     style="fill:#536dfe;fill-opacity:1;stroke-width:1.396" />
  <g
     class="cls-20"
     clip-path="url(#clip-path-2)"
     id="g256"
     style="fill:#536dfe;fill-opacity:1"
     transform="matrix(1.4285211,0,0,1.3642172,-233.51893,-144.23348)">
    <path
       class="cls-21"
       d="m 515.2,209.9 c 0,0 -12.9,19.8 -8.8,61.5 4.1,41.7 -13.9,63.2 -5.7,82.4"
       id="path246"
       style="fill:#536dfe;fill-opacity:1;stroke:#ffffff;stroke-opacity:1" />
    <path
       class="cls-21"
       d="m 584.9,213.6 c 0,0 -15.7,2.6 -19.6,29.1 -3.9,26.5 6.4,61.9 4.5,81.8 -1.9,19.9 -7.2,31.6 -7.2,31.6"
       id="path248"
       style="fill:#536dfe;fill-opacity:1;stroke:#ffffff;stroke-opacity:1" />
    <path
       class="cls-21"
       d="m 586.6,349.7 c 0,0 5.3,-49.9 0,-77.5 -5.3,-27.6 6.7,-51.6 20.2,-48.3"
       id="path250"
       style="fill:#536dfe;fill-opacity:1;stroke:#ffffff;stroke-opacity:1" />
    <path
       class="cls-21"
       d="m 540.2,351.8 c 0,0 4.4,-32.4 2.9,-61.4 -0.6,-10.9 -6.9,-64.4 16.4,-81.3"
       id="path252"
       style="fill:#536dfe;fill-opacity:1;stroke:#ffffff;stroke-opacity:1" />
    <path
       class="cls-21"
       d="m 515.2,349.7 c 0,0 6.9,-40.8 6.5,-64.8 -0.4,-24 -2.4,-74.8 9.7,-83"
       id="path254"
       style="fill:#536dfe;fill-opacity:1;stroke:#ffffff;stroke-opacity:1" />
  </g>
  <ellipse
     class="cls-16"
     cx="556.88171"
     cy="210.5994"
     id="circle258"
     rx="9.2853861"
     ry="8.8674116"
     style="stroke-width:1.396;fill:#ffffff;fill-opacity:1" />
  <path
     class="cls-11"
     d="m 525.73998,142.38854 c -3.85699,0.13642 -6.85689,2.31917 -9.57109,4.91119 a 14.628056,13.969582 0 0 0 -3.99986,6.68465 c -5.42836,25.1016 2.85706,55.38723 13.42811,55.11438 13.28523,-0.40927 31.14174,-23.46454 45.14127,-49.65751 5.71407,-10.7773 -5.28554,-18.2805 -11.71388,-18.2805 -4.99983,-0.13642 -25.28482,0.81853 -33.28455,1.22779 z"
     id="path260"
     style="fill:#536dfe;fill-opacity:1;stroke-width:1.396" />
  <path
     class="cls-8"
     d="m 586.73784,89.320498 a 50.298225,48.034084 0 0 1 -6.71405,21.963902 c -6.71406,10.91373 -14.85663,16.64345 -17.57081,21.55462 -2.71419,4.91119 -1.99993,-7.91245 0,-14.05143 1.99992,-6.13898 13.85665,-38.880191 24.28486,-29.467092 z"
     id="path262"
     style="stroke-width:1.396" />
  <path
     class="cls-9"
     d="m 522.74009,130.79269 c 0,0 -1.57137,13.23291 -2.57134,18.28051 -0.99996,5.04762 -3.2856,18.28051 14.42807,19.09905 15.85658,0.81853 24.42771,-10.91375 27.57045,-16.64346 a 10.671052,10.190702 0 0 0 1.28566,-5.59328 c -0.42854,-6.00255 -1.28566,-20.73611 -0.85709,-32.74122 0.57141,-15.279224 -39.85575,6.82109 -39.85575,17.5984 z"
     id="path264"
     style="stroke-width:1.396" />
  <path
     class="cls-18"
     d="m 554.16757,131.74765 c -8.42829,6.41182 -20.85642,9.4131 -32.5703,7.77603 -0.42855,3.54696 -0.99996,7.36677 -1.42852,9.54952 q -0.21427,1.02317 -0.42856,2.45559 c 14.42807,0.68212 30.85607,-6.13897 34.42738,-19.78114 z"
     id="path266"
     style="stroke-width:1.396" />
  <path
     class="cls-8"
     d="m 505.88354,81.680889 c 0,0 -3.857,5.320438 -3.2856,9.413085 0.57141,4.092657 8.71398,17.871246 12.8567,17.461986 4.14271,-0.40926 8.42827,-17.325554 3.57129,-22.918855 -4.85696,-5.593283 -11.571,-6.548234 -13.14239,-3.956216 z"
     id="path268"
     style="stroke-width:1.396" />
  <path
     class="cls-9"
     d="m 509.16913,89.45692 a 118.16727,112.84804 0 0 1 -1.42851,20.46325 c -1.85708,10.91374 -3.14274,27.28435 13.85665,31.78626 16.99941,4.50192 36.99871,-1.63706 43.2842,-24.01022 6.28548,-22.373157 10.85675,-45.019153 -10.85677,-51.567401 -21.71352,-6.548247 -47.42689,1.909904 -44.85557,23.328111 z"
     id="path270"
     style="stroke-width:1.396" />
  <path
     class="cls-8"
     d="m 516.45461,100.37066 a 9.0996789,8.6900628 0 0 1 -0.28572,4.91117 7.2426014,6.9165806 0 0 1 -1.28567,2.18275 6.2140663,5.9343443 0 0 1 -0.85711,0.95495 c -0.14285,0.13643 -0.2857,0.40926 -0.42856,0.54569 a 1.9856442,1.8962617 0 0 0 0,1.2278 5.3569538,5.115814 0 0 0 0.99997,1.63705 13.999506,13.369327 0 0 0 3.42845,2.86486 6.8711861,6.5618841 0 0 1 -4.85697,-1.50064 5.9569327,5.6887852 0 0 1 -1.85708,-2.18275 3.7855807,3.6151753 0 0 1 0,-3.13768 3.1141758,2.9739932 0 0 1 0.99998,-1.2278 c 0.28569,-0.27285 0.5714,-0.40926 0.71425,-0.68211 a 13.399527,12.796357 0 0 0 1.28568,-1.63707 18.899333,18.048592 0 0 0 2.14278,-3.95622 z"
     id="path272"
     style="stroke-width:1.396" />
  <path
     class="cls-8"
     d="m 564.02436,106.64606 a 26.756198,25.551785 0 0 1 -3.14275,-9.4131 c -0.85712,-6.275397 -7.85687,-5.866133 -11.14246,-17.461973 -3.28561,-11.595862 -11.28532,2.728431 -23.99917,7.912457 -12.71383,5.184027 -22.71347,-3.137709 -27.85615,-12.41439 -5.14268,-9.276668 3.5713,-17.461972 9.42823,-21.281788 5.85694,-3.819795 11.99958,2.319184 23.42775,-0.409258 11.42818,-2.728432 29.85609,-6.138968 38.71293,6.138977 8.85683,12.277957 17.99936,15.279234 17.42794,28.648565 -0.5714,13.36932 -16.9994,28.23929 -17.99936,28.37572 -0.99997,0.13641 -4.85696,-10.09521 -4.85696,-10.09521 z"
     id="path274"
     style="stroke-width:1.396" />
  <path
     class="cls-8"
     d="m 533.88256,93.822409 c -0.42857,-1.09137 -0.85711,-3.137688 0.71426,-4.229068 1.57137,-1.09137 5.14268,-0.682106 8.57113,1.364222 2.99989,1.773476 3.857,4.638342 1.85707,4.36549 -1.99992,-0.272833 -3.5713,-1.09137 -5.99979,-1.227802 -2.42848,-0.136411 -4.71411,0.682117 -5.14267,-0.272842 z"
     id="path276"
     style="stroke-width:1.396" />
  <path
     class="cls-8"
     d="m 516.74031,92.321776 a 4.8426862,4.624696 0 0 0 -0.42856,-3.956226 c -0.85711,-1.09138 -3.14275,-0.954949 -5.28552,0.545685 -1.8571,1.364212 -2.4285,3.956236 -1.14283,3.819804 a 14.470917,13.819518 0 0 1 3.71415,-0.545685 c 1.57138,0.136422 2.85706,0.954949 3.14276,0.136422 z"
     id="path278"
     style="stroke-width:1.396" />
  <path
     class="cls-8"
     d="m 506.8835,116.87768 c 0,0 -0.14283,1.63705 2.28563,2.04634 2.4285,0.40925 2.71421,-3.13771 6.85691,-3.6834 2.57135,-0.27285 11.57103,0.40927 15.28517,3.6834 3.71417,3.27411 8.85683,7.09392 16.28516,4.91117 7.42831,-2.18275 11.85671,-12.14154 13.28524,-26.60223 1.28566,-13.232909 6.42834,-0.409274 6.42834,2.728435 0,2.182745 -2.14279,-0.954959 -4.71411,7.912465 -1.14283,3.95621 0,15.14279 -4.42843,23.3281 -3.42845,6.2754 -12.99954,12.68721 -25.14196,13.50575 -12.14243,0.81853 -22.14208,-3.95623 -25.14197,-11.59583 -2.9999,-7.36678 -1.85709,-15.68852 -0.99998,-16.2342 z"
     id="path280"
     style="stroke-width:1.396" />
  <path
     class="cls-8"
     d="m 512.74045,102.55341 v 0 a 2.0856406,1.9917569 0 0 0 2.28564,-1.77349 l 0.14284,-1.091368 a 2.0856406,1.9917569 0 0 0 -1.85707,-2.182749 v 0 a 2.0856406,1.9917569 0 0 0 -2.28563,1.773475 l -0.14286,1.091382 a 2.0856406,1.9917569 0 0 0 1.85708,2.18275 z"
     id="path282"
     style="stroke-width:1.396" />
  <path
     class="cls-8"
     d="m 535.45394,103.91762 v 0 a 2.0856406,1.9917569 0 0 0 2.28564,-1.77348 l 0.14283,-1.09137 a 2.0856406,1.9917569 0 0 0 -1.85707,-2.182745 v 0 a 2.0856406,1.9917569 0 0 0 -2.28563,1.773475 l -0.14287,1.09137 a 1.9285032,1.8416931 0 0 0 1.8571,2.18275 z"
     id="path284"
     style="stroke-width:1.396" />
  <path
     class="cls-9"
     d="m 562.45298,107.87386 c 0,0 3.85701,-8.185308 10.57106,-7.23036 6.71405,0.95496 3.42844,18.28052 -8.99968,18.14409"
     id="path286"
     style="stroke-width:1.396" />
  <path
     class="cls-8"
     d="m 572.59547,106.78249 a 6.2426368,5.9616287 0 0 0 -1.14281,-0.95497 c -0.42857,-0.13641 -0.28571,0.13643 -0.5714,0.27285 0,0.13643 -0.28571,1.22778 -0.42857,2.18275 a 8.9425414,8.5399989 0 0 1 -0.99995,3.00128 4.0569997,3.8743766 0 0 1 -1.14283,1.50063 1.7999364,1.7189135 0 0 1 -1.85708,0.27284 1.6570843,1.5824918 0 0 0 0.85712,-1.09138 c 0.14285,-0.40925 0.14285,-0.81852 0.2857,-1.22778 a 27.413319,26.179326 0 0 1 0.42856,-3.00127 l 0.42856,-1.63707 0.42855,-0.81854 c 0.14285,-0.13641 0.14285,-0.27284 0.42857,-0.40925 0.28569,-0.13643 0.42855,-0.27284 0.57139,-0.40927 a 2.857042,2.7284342 0 0 1 1.28567,-0.27285 2.2570632,2.155463 0 0 1 1.14282,0.68212 2.585623,2.469233 0 0 1 0.2857,1.90991 z"
     id="path288"
     style="stroke-width:1.396" />
  <path
     class="cls-22"
     d="m 522.74009,124.5173 a 14.870903,14.2015 0 0 0 7.71401,0.95496"
     id="path290" />
  <ellipse
     class="cls-23"
     cx="-51.400093"
     cy="514.50555"
     rx="12.419778"
     ry="8.5677242"
     transform="matrix(0.09941067,-0.99504649,0.99587482,0.09073776,0,0)"
     id="ellipse292" />
  <ellipse
     class="cls-23"
     cx="-51.159351"
     cy="543.95013"
     rx="12.419778"
     ry="10.995245"
     transform="matrix(0.09941067,-0.99504649,0.99587482,0.09073776,0,0)"
     id="ellipse294" />
  <path
     class="cls-10"
     d="m 515.45464,100.6435 c 0,0 2.42849,-4.365499 10.1425,0.81853"
     id="path296" />
  <line
     class="cls-10"
     x1="547.45361"
     y1="101.3256"
     x2="563.59576"
     y2="104.59972"
     id="line298" />
  <path
     class="cls-9"
     d="m 609.30848,251.93517 7.57116,14.59713 c 0,0 -7.99973,10.36806 -16.57085,30.01277 -8.57113,19.64472 -14.85663,43.92779 -20.71355,50.88529 0,0 5.71407,13.09649 19.71358,18.82621 0,0 27.28475,-38.19808 39.71288,-54.84152 12.42814,-16.64346 24.28486,-37.92524 23.42775,-48.56614 -1.28567,-15.68849 -13.71381,-38.88018 -14.85662,-45.15559 -1.14282,-6.2754 -37.99867,16.09777 -38.28435,34.24185 z"
     id="path300"
     style="stroke-width:1.396" />
  <path
     class="cls-18"
     d="m 647.44997,217.69332 c -0.99996,-6.13896 -37.85581,16.09777 -38.14149,34.24185 l 1.1428,2.04634 a 135.23809,129.15044 0 0 1 43.14134,-20.32684 c -2.9999,-7.09394 -5.71408,-13.2329 -6.14265,-15.96135 z"
     id="path302"
     style="stroke-width:1.396" />
  <path
     class="cls-8"
     d="m 586.73784,333.24252 c 1.99992,3.27411 8.85683,12.0051 24.85627,15.55207 a 0.7142605,0.68210853 0 0 1 0.42855,1.09137 l -7.28546,9.4131 c -0.14285,0.27284 -0.57142,0.27284 -0.85711,0.27284 -17.85651,-5.18402 -22.57063,-13.77859 -23.28489,-15.41565 a 0.4285563,0.40926513 0 0 1 0,-0.54569 l 4.85696,-10.23163 c 0.28571,-0.6821 0.99996,-0.6821 1.28568,-0.13641 z"
     id="path304"
     style="stroke-width:1.396" />
  <ellipse
     class="cls-24"
     cx="-5.1312156"
     cy="685.69043"
     rx="6.6101313"
     ry="6.4688883"
     transform="matrix(0.53941262,-0.84204158,0.86344305,0.50444633,0,0)"
     id="ellipse306"
     style="stroke-width:1.39161" />
  <path
     class="cls-11"
     d="m 613.45118,161.35116 a 9.4282386,9.0038328 0 0 1 8.99968,3.27412 c 3.2856,3.95623 8.71399,11.59585 15.42803,24.69232 11.28532,21.96391 19.14218,36.4246 19.14218,36.4246 0,0 -39.14148,20.19042 -47.71259,26.19297 0,0 -15.85659,-25.51085 -20.99927,-36.15175 -4.99983,-10.09521 -3.57131,-49.38466 25.14197,-54.43226 z"
     id="path308"
     style="fill:#536dfe;fill-opacity:1;stroke-width:1.396" />
  <path
     class="cls-15"
     d="m 604.4515,244.02271 a 275.06172,262.68 0 0 1 48.14116,-26.4658"
     id="path310" />
  <path
     class="cls-13"
     d="m 574.02399,338.42653 a 52.612428,50.244115 0 0 0 34.28451,32.19552"
     id="path312" />
  <path
     class="cls-25"
     d="m 616.87964,266.5323 a 21.427816,20.463256 0 0 1 11.71386,-6.41183"
     id="path314" />
  <path
     class="cls-7"
     d="m 828.58644,300.63772 -126.4241,-14.86996 a 7.5140205,7.175782 0 0 1 -6.57121,-7.91245 l 13.4281,-119.77828 a 10.756763,10.272555 0 0 1 9.14253,-9.00383 l 130.85253,-16.91629 a 7.5854465,7.2439928 0 0 1 8.57112,8.04889 l -19.42787,153.47442 a 8.5711261,8.1853025 0 0 1 -9.5711,6.9575 z"
     id="path316"
     style="stroke-width:1.396" />
  <path
     class="cls-8"
     d="m 824.30088,300.22847 -126.4241,-15.0064 a 7.5140205,7.175782 0 0 1 -6.57121,-7.91246 l 13.42809,-119.77825 a 10.756763,10.272555 0 0 1 9.14254,-9.00385 l 130.85254,-16.91628 a 7.5854465,7.2439928 0 0 1 8.57112,8.04888 l -19.4279,153.47442 a 8.6425521,8.2535133 0 0 1 -9.57108,7.09394 z"
     id="path318"
     style="fill:#536dfe;fill-opacity:1;stroke-width:1.396" />
  <path
     class="cls-11"
     d="m 819.58676,188.90835 -98.9965,4.77475 a 2.6713343,2.551086 0 0 1 -2.85705,-2.86485 l 2.42849,-21.14536 a 2.7427603,2.6192968 0 0 1 2.42847,-2.31918 l 99.85363,-9.41309 a 2.7570455,2.632939 0 0 1 2.99989,3.00128 l -3.2856,25.92012 c 0,0.95495 -1.14281,1.9099 -2.57133,2.04633 z"
     id="path320"
     style="fill:#f9f9f9;stroke-width:1.396" />
  <line
     class="cls-10"
     x1="745.87494"
     y1="174.7205"
     x2="811.44415"
     y2="169.6729"
     id="line322" />
  <line
     class="cls-10"
     x1="745.01794"
     y1="182.76936"
     x2="780.30249"
     y2="180.45021"
     id="line324" />
  <ellipse
     class="cls-8"
     cx="175.21635"
     cy="725.31396"
     rx="4.6884956"
     ry="3.9600003"
     transform="matrix(0.49176071,-0.87073039,0.88900509,0.4578973,0,0)"
     id="ellipse326"
     style="stroke-width:1.39652" />
  <path
     class="cls-9"
     d="m 814.01552,232.15403 -97.85368,-1.63706 a 2.857042,2.7284342 0 0 1 -2.71419,-2.86487 l 2.42848,-21.00893 a 2.657049,2.5374438 0 0 1 2.7142,-2.31918 l 98.56795,-3.00128 a 2.857042,2.7284342 0 0 1 2.85703,3.00128 l -3.14274,25.64729 a 2.9427533,2.8102872 0 0 1 -2.85705,2.18275 z"
     id="path328"
     style="fill:#ffffff;stroke-width:1.396" />
  <line
     class="cls-10"
     x1="741.44666"
     y1="213.19142"
     x2="806.30151"
     y2="212.37285"
     id="line330" />
  <line
     class="cls-10"
     x1="740.44672"
     y1="221.10384"
     x2="775.44537"
     y2="221.10384"
     id="line332" />
  <ellipse
     class="cls-8"
     cx="107.13777"
     cy="747.18317"
     rx="4.6805067"
     ry="3.8247471"
     transform="matrix(0.45147713,-0.89228269,0.90798908,0.41899383,0,0)"
     id="ellipse334"
     style="stroke-width:1.39644" />
  <path
     class="cls-12"
     d="m 808.58714,274.99045 -96.71086,-7.91246 a 2.857042,2.7284342 0 0 1 -2.57135,-2.86487 l 2.4285,-20.87251 a 2.6856195,2.5647282 0 0 1 2.85703,-2.31918 l 97.42514,3.41055 a 2.857042,2.7284342 0 0 1 2.71419,3.00128 l -3.14275,25.37444 a 2.9713237,2.8375716 0 0 1 -2.9999,2.18275 z"
     id="path336"
     style="fill:#ffffff;stroke-width:1.396" />
  <line
     class="cls-10"
     x1="737.01831"
     y1="251.38948"
     x2="801.01599"
     y2="254.6636"
     id="line338" />
  <line
     class="cls-10"
     x1="736.01825"
     y1="259.16556"
     x2="770.5885"
     y2="261.48468"
     id="line340" />
  <ellipse
     class="cls-8"
     cx="38.473549"
     cy="763.73773"
     rx="4.6729107"
     ry="3.8306"
     transform="matrix(0.40929212,-0.9124034,0.92554073,0.37864807,0,0)"
     id="ellipse342"
     style="stroke-width:1.39639" />
</svg>
