<?xml version="1.0" encoding="UTF-8" standalone="no"?>
<svg
   version="1.1"
   x="0px"
   y="0px"
   width="500px"
   height="421px"
   viewBox="0 0 500 421"
   enable-background="new 0 0 500 421"
   xml:space="preserve"
   id="svg1206"
   sodipodi:docname="cloud-computing.svg"
   inkscape:version="1.1.2 (b8e25be8, 2022-02-05)"
   xmlns:inkscape="http://www.inkscape.org/namespaces/inkscape"
   xmlns:sodipodi="http://sodipodi.sourceforge.net/DTD/sodipodi-0.dtd"
   xmlns="http://www.w3.org/2000/svg"
   xmlns:svg="http://www.w3.org/2000/svg"><defs
   id="defs1210" /><sodipodi:namedview
   id="namedview1208"
   pagecolor="#ffffff"
   bordercolor="#666666"
   borderopacity="1.0"
   inkscape:pageshadow="2"
   inkscape:pageopacity="0.0"
   inkscape:pagecheckerboard="0"
   showgrid="false"
   inkscape:zoom="1.2070014"
   inkscape:cx="217.48111"
   inkscape:cy="193.86887"
   inkscape:window-width="1440"
   inkscape:window-height="794"
   inkscape:window-x="0"
   inkscape:window-y="25"
   inkscape:window-maximized="0"
   inkscape:current-layer="g1203" />
<g
   id="BACKGROUND">
</g>
<g
   id="DESIGNED_BY_FREEPIK">
	<g
   id="g1203">
		
		
		
		
		
		
		<g
   id="g915"
   transform="matrix(2.3399556,0,0,2.0156863,-351.65073,-157.12716)">
			<path
   fill="#0e538c"
   d="m 352.666,145.773 v 91.4 l 0.0719,4.09291 v 0 c 0,0 -0.2692,4.08707 -0.1442,6.98207 0.062,1.459 -0.43869,3.55002 -0.14869,5.75502 v 0 l -0.644,1.248 v 0 l -2.134,0.729 c -0.008,0.016 -0.008,0.023 -0.015,0.039 0.446,3.139 0.987,6.441 1.442,9.07 -2.503,0.016 -5.287,0.064 -7.43,0.104 0.022,-1.617 0.062,-3.57 0.094,-5.604 -0.244,0.008 -0.518,0.008 -0.801,0.008 -0.305,0 -0.619,-0.008 -0.926,-0.016 -0.572,-0.008 -1.113,-0.023 -1.475,-0.039 0.008,0.086 0.023,0.15 0.039,0.195 0,0 -0.314,-0.031 -0.832,-0.094 -0.493,4.08 -1.012,7.562 -1.012,7.562 l 0.689,0.283 c -0.359,1.201 -0.838,2.816 -1.372,4.654 h -167.36 c -5.053,0 -9.156,-4.104 -9.156,-9.164 V 145.773 c 0,-5.062 4.104,-9.166 9.156,-9.166 h 172.791 c 5.063,0 9.167,4.104 9.167,9.166 z"
   id="path869"
   sodipodi:nodetypes="scccccccccccccscccccccssssss"
   style="fill:#373a3c;fill-opacity:1" />
			<g
   id="g913">
				<path
   fill="#FFBE55"
   d="m 224.16,153.662 h -38.287 c -1.362,0 -2.469,-1.104 -2.469,-2.465 v -0.314 c 0,-1.363 1.106,-2.467 2.469,-2.467 h 38.287 c 1.362,0 2.467,1.104 2.467,2.467 v 0.314 c 0,1.362 -1.105,2.465 -2.467,2.465 z"
   id="path871"
   style="fill:#ffffff" />
				<path
   fill="#FFBE55"
   d="m 235.402,169.246 h -38.285 c -1.363,0 -2.469,-1.104 -2.469,-2.467 v -0.311 c 0,-1.363 1.105,-2.469 2.469,-2.469 h 38.285 c 1.363,0 2.465,1.105 2.465,2.469 v 0.311 c 0,1.364 -1.101,2.467 -2.465,2.467 z"
   id="path873"
   style="fill:#ffffff" />
				<path
   fill="#2A94F4"
   d="m 333.183,169.246 h -87.13 c -1.363,0 -2.468,-1.104 -2.468,-2.467 v -0.311 c 0,-1.363 1.104,-2.469 2.468,-2.469 h 87.13 c 1.362,0 2.467,1.105 2.467,2.469 v 0.311 c -10e-4,1.364 -1.105,2.467 -2.467,2.467 z"
   id="path875"
   style="fill:#ffffff" />
				<path
   fill="#FFBE55"
   d="m 257.108,180.334 h -59.991 c -1.363,0 -2.469,-1.104 -2.469,-2.467 v -0.312 c 0,-1.363 1.105,-2.467 2.469,-2.467 h 59.991 c 1.362,0 2.466,1.104 2.466,2.467 v 0.312 c 0,1.363 -1.103,2.467 -2.466,2.467 z"
   id="path877"
   style="fill:#ffffff" />
				<path
   fill="#2A94F4"
   d="m 333.183,180.334 h -59.991 c -1.363,0 -2.467,-1.104 -2.467,-2.467 v -0.312 c 0,-1.363 1.104,-2.467 2.467,-2.467 h 59.991 c 1.362,0 2.467,1.104 2.467,2.467 v 0.312 c -10e-4,1.363 -1.105,2.467 -2.467,2.467 z"
   id="path879"
   style="fill:#ffffff" />
				<path
   fill="#FFBE55"
   d="m 275.658,191.42 h -78.541 c -1.363,0 -2.469,-1.104 -2.469,-2.465 v -0.312 c 0,-1.361 1.105,-2.467 2.469,-2.467 h 78.541 c 1.361,0 2.467,1.105 2.467,2.467 v 0.312 c 0,1.361 -1.105,2.465 -2.467,2.465 z"
   id="path881"
   style="fill:#ffffff" />
				<path
   fill="#2A94F4"
   d="m 333.025,191.42 h -35.713 c -1.449,0 -2.624,-1.172 -2.624,-2.621 v 0 c 0,-1.449 1.175,-2.623 2.624,-2.623 h 35.713 c 1.449,0 2.624,1.174 2.624,2.623 v 0 c 0,1.449 -1.174,2.621 -2.624,2.621 z"
   id="path883"
   style="fill:#ffffff" />
				<circle
   fill="#ffffff"
   cx="186.02901"
   cy="166.625"
   r="2.625"
   id="circle885" />
				<circle
   fill="#ffffff"
   cx="186.02901"
   cy="177.711"
   r="2.625"
   id="circle887" />
				<circle
   fill="#ffffff"
   cx="186.02901"
   cy="188.799"
   r="2.625"
   id="circle889" />
				<path
   fill="#2A94F4"
   d="m 255.422,200.506 h -70.328 c -0.933,0 -1.689,-0.754 -1.689,-1.686 v 0 c 0,-0.932 0.757,-1.688 1.689,-1.688 h 70.328 c 0.93,0 1.687,0.756 1.687,1.688 v 0 c -10e-4,0.932 -0.757,1.686 -1.687,1.686 z"
   id="path891"
   style="fill:#ffffff" />
				<path
   fill="#FFBE55"
   d="m 235.402,225.205 h -38.285 c -1.363,0 -2.469,-1.105 -2.469,-2.467 v -0.312 c 0,-1.361 1.105,-2.465 2.469,-2.465 h 38.285 c 1.363,0 2.465,1.104 2.465,2.465 v 0.312 c 0,1.362 -1.101,2.467 -2.465,2.467 z"
   id="path893"
   style="fill:#ffffff" />
				<path
   fill="#2A94F4"
   d="m 274.564,225.205 h -28.356 c -1.45,0 -2.623,-1.174 -2.623,-2.623 v 0 c 0,-1.449 1.173,-2.621 2.623,-2.621 h 28.356 c 1.449,0 2.625,1.172 2.625,2.621 v 0 c 0,1.449 -1.175,2.623 -2.625,2.623 z"
   id="path895"
   style="fill:#ffffff" />
				<path
   fill="#FFBE55"
   d="m 236.637,236.293 h -39.52 c -1.363,0 -2.469,-1.104 -2.469,-2.467 v -0.312 c 0,-1.361 1.105,-2.467 2.469,-2.467 h 39.52 c 1.361,0 2.467,1.105 2.467,2.467 v 0.312 c 0,1.363 -1.106,2.467 -2.467,2.467 z"
   id="path897"
   style="fill:#ffffff" />
				<path
   fill="#2A94F4"
   d="m 333.183,236.293 h -87.13 c -1.363,0 -2.468,-1.104 -2.468,-2.467 v -0.312 c 0,-1.361 1.104,-2.467 2.468,-2.467 h 87.13 c 1.362,0 2.467,1.105 2.467,2.467 v 0.312 c -10e-4,1.363 -1.105,2.467 -2.467,2.467 z"
   id="path899"
   style="fill:#ffffff" />
				<path
   fill="#FFBE55"
   d="m 275.658,247.381 h -78.541 c -1.363,0 -2.469,-1.105 -2.469,-2.469 V 244.6 c 0,-1.361 1.105,-2.465 2.469,-2.465 h 78.541 c 1.361,0 2.467,1.104 2.467,2.465 v 0.312 c 0,1.363 -1.105,2.469 -2.467,2.469 z"
   id="path901"
   style="fill:#ffffff" />
				<path
   fill="#2A94F4"
   d="m 333.025,247.381 h -45.307 c -1.449,0 -2.623,-1.176 -2.623,-2.625 v 0 c 0,-1.447 1.174,-2.621 2.623,-2.621 h 45.307 c 1.449,0 2.624,1.174 2.624,2.621 v 0 c 0,1.449 -1.174,2.625 -2.624,2.625 z"
   id="path903"
   style="fill:#ffffff" />
				<circle
   fill="#ffffff"
   cx="186.02901"
   cy="222.582"
   r="2.625"
   id="circle905" />
				<circle
   fill="#ffffff"
   cx="186.02901"
   cy="233.668"
   r="2.625"
   id="circle907" />
				<circle
   fill="#ffffff"
   cx="186.02901"
   cy="244.756"
   r="2.625"
   id="circle909" />
				<path
   fill="#2A94F4"
   d="m 255.422,256.463 h -70.328 c -0.933,0 -1.689,-0.754 -1.689,-1.686 v 0 c 0,-0.93 0.757,-1.684 1.689,-1.684 h 70.328 c 0.93,0 1.687,0.754 1.687,1.684 v 0 c -10e-4,0.932 -0.757,1.686 -1.687,1.686 z"
   id="path911"
   style="fill:#ffffff" />
			</g>
		<rect
   style="fill:#373a3c;fill-opacity:1;stroke-width:5.66929;stroke-miterlimit:4;stroke-dasharray:none;paint-order:markers fill stroke"
   id="rect3876"
   width="15.310756"
   height="33.921246"
   x="337.49658"
   y="238.24065" /></g>
		
		
		<g
   id="g981"
   transform="matrix(2.3399556,0,0,2.0156863,-351.65073,-157.12716)">
			<path
   fill="#FFFFFF"
   d="m 251.075,171.314 c 0,0 1.245,1.092 2.364,2.77 1.119,1.678 5.752,3.805 5.879,6.096 0.126,2.289 -5.701,0.32 -7.887,-0.422 -2.187,-0.748 -2.518,-2.982 -3.84,-3.543 -1.322,-0.559 -2.009,-1.014 -1.906,-2.104 0.103,-1.092 0.832,-2.865 0.832,-2.865 0,0 0.822,0.264 1.306,0.316 0.483,0.053 2.109,0.073 3.252,-0.248 z"
   id="path929"
   style="fill:#6c63ff;fill-opacity:1" />
			<path
   fill="#2A94F4"
   d="m 236.09,109.266 c 0,0 0.838,4.982 1.513,8.271 v 0 c 0.275,1.336 0.521,2.393 0.675,2.727 0.193,0.416 1.767,2.105 3.69,4.088 3.379,3.477 7.84,7.855 7.84,7.855 l 1.745,-3.311 c 0,0 -3.965,-4.646 -6.65,-7.748 -1.244,-1.436 -2.215,-2.537 -2.393,-2.697 -0.562,-0.502 -1.213,-5.455 -2.129,-9.533 -0.918,-4.082 -2.754,-6.334 -2.754,-6.334 z"
   id="path931"
   style="fill:#6c63ff;fill-opacity:1" />
			<path
   fill="#eea886"
   d="m 241.968,124.352 c 3.379,3.477 7.84,7.855 7.84,7.855 l 1.745,-3.311 c 0,0 -3.965,-4.646 -6.65,-7.748 -0.825,0.405 -2.337,1.368 -2.935,3.204 z"
   id="path933" />
			<g
   id="g937"
   style="fill:#1a1a1a">
				<path
   fill="#FFFFFF"
   d="m 220.309,169.949 c 0,0 -1.146,1.27 -1.824,2.039 -0.68,0.768 -5.398,4.359 -5.411,6.643 -0.015,2.477 4.036,0.043 5.757,-0.049 1.717,-0.09 3.114,-1.277 3.837,-2.68 0.724,-1.402 2.649,-1.77 2.785,-2.9 0.135,-1.131 -0.892,-3.166 -0.892,-3.166 z"
   id="path935"
   style="fill:#6c63ff;fill-opacity:1" />
			</g>
			<path
   fill="#0b4870"
   d="m 224.338,167.729 0.223,2.107 c 0,0 -3.588,1.562 -4.252,0.113 l 0.155,-1.875 z"
   id="path939" />
			<path
   fill="#0b4870"
   d="m 250.881,169.789 0.194,1.525 c 0,0 -2.168,0.766 -4.558,-0.068 l -0.047,-1.357 z"
   id="path941" />
			<path
   fill="#2A94F4"
   d="m 220.106,131.533 c -0.124,0.443 22.96,0 22.96,0 0,0 -6.385,-4.648 -6.8,-5.889 -0.413,-1.242 1.627,-8.693 1.892,-11.117 0.215,-1.941 0.747,-10.619 -0.531,-11.943 -1.336,-1.387 -6.148,-2.838 -6.148,-2.838 l -7.017,0.26 c 0,0 -1.159,0.242 -1.986,0.625 -0.827,0.385 -5.562,2.072 -6.33,4.436 -0.769,2.367 4.724,9.971 4.724,9.971 0,0 0.01,0.342 0.026,0.9 v 0 c 0.022,0.75 0.052,1.883 0.081,3.115 0.037,1.594 0.069,3.35 0.069,4.631 0,3.015 -0.816,7.406 -0.94,7.849 z"
   id="path943"
   style="fill:#6c63ff;fill-opacity:1" />
			<path
   fill="#cce9ff"
   d="m 220.106,131.533 c 0,0 -3.141,4.611 -3.185,7.76 -0.043,3.148 1.164,11.881 1.252,13.607 0.088,1.73 1.715,16.145 1.715,16.145 0,0 1.258,1.166 5.025,-0.297 0,0 0.833,-13.668 0.921,-15.131 0.09,-1.465 0.09,-8.203 0.932,-9.18 0.843,-0.975 5.942,-4.035 6.606,-4.611 0.666,-0.578 12.253,2.189 13.469,2.504 3.144,0.816 1.711,6.287 1.015,8.738 -1.163,4.104 -2.181,18.922 -2.181,18.922 0,0 2.239,0.953 5.99,0.148 0,0 7.365,-26.758 7.603,-29.418 0.236,-2.66 0.353,-7.047 -17.8,-10.383 z"
   id="path945" />
			<path
   fill="#eea886"
   d="m 229.553,84.5 c 0,0 6.091,-1.375 4.699,6.291 -1.391,7.664 -2.855,8.268 -6.529,6.682 -3.677,-1.586 -3.347,-6.498 -3.533,-8.906 -0.183,-2.409 3.419,-3.983 5.363,-4.067 z"
   id="path947" />
			<path
   fill="#eea886"
   d="m 231.165,101.713 c 0,0 -2.698,2.859 -6.961,0.26 0,0 0.952,-6.197 0.452,-9.217 -0.503,-3.018 5.561,4.678 5.561,4.678 -0.078,0.043 -0.132,0.33 -0.145,0.74 -0.01,0.346 0.01,0.781 0.064,1.229 0.126,1.003 0.438,2.064 1.029,2.31 z"
   id="path949" />
			<path
   fill="#eea886"
   d="m 226.286,89.775 c -0.08,-0.678 -1.417,-0.924 -1.524,0.09 -0.107,1.012 0.607,2.791 1.115,2.617 0.507,-0.175 0.519,-1.775 0.409,-2.707 z"
   id="path951" />
			<path
   fill="#0b4870"
   d="m 224.486,92.5 c 0,0 0.157,-2.414 1.04,-2.49 0.882,-0.074 1.018,0.896 1.018,0.896 l 0.891,0.17 c 0,0 -0.28,-2.117 0.601,-2.488 0.88,-0.369 5.707,1.166 6.414,0.545 0.706,-0.621 2.597,-3.355 1.317,-3.943 -1.278,-0.588 -7.032,-3.465 -9.62,-1.713 0,0 -2.018,-0.23 -2.316,1.398 -0.298,1.628 0.108,6.416 0.655,7.625 z"
   id="path953" />
			<path
   fill="#a77860"
   d="m 230.137,99.402 c -4.398,-1.355 -4.729,-4.006 -4.734,-4.047 1.449,2.49 4.67,2.818 4.67,2.818 -0.011,0.347 0.009,0.782 0.064,1.229 z"
   id="path955" />
			<path
   fill="#2A94F4"
   d="m 245.708,131.209 c 0,0 -15.942,1.965 -25.602,0.324 l 18.456,-2.307 c 0,0.001 0.11,0.471 7.146,1.983 z"
   id="path957"
   style="fill:#6c63ff;fill-opacity:1" />
			<path
   fill="#eea886"
   d="m 233.784,128.502 1.187,0.6 c 0,0 -0.27,1.887 -0.92,2.459 l -1.332,-0.34 c 0,0 0.277,-2.069 1.065,-2.719 z"
   id="path959" />
			<path
   fill="#2A94F4"
   d="m 215.336,124.637 c 0.237,0.277 3.371,1.537 6.912,2.9 v 0 c 4.837,1.863 10.295,3.627 10.295,3.627 l 1.241,-2.662 c 0,0 -5.714,-3.105 -9.575,-5.283 -1.823,-1.029 -3.233,-1.85 -3.434,-2.039 -0.62,-0.592 -0.781,-1.541 -0.324,-3.193 0.455,-1.654 1.508,-9.254 1.625,-10.141 0.119,-0.887 -0.295,-3.252 -2.513,-3.369 -2.217,-0.121 -3.345,0.506 -3.345,0.506 0,0 -0.559,0.232 -0.971,5.613 -0.414,5.381 -0.474,13.39 0.089,14.041 z"
   id="path961"
   style="fill:#6c63ff;fill-opacity:1" />
			<path
   fill="#eea886"
   d="m 222.248,127.537 v 0 c 4.837,1.863 10.471,3.684 10.471,3.684 l 1.065,-2.719 c 0,0 -5.714,-3.105 -9.575,-5.283 0,0 -1.405,0.683 -1.961,4.318 z"
   id="path963" />
			<polygon
   fill="#f7f7f7"
   points="256.788,131.045 245.347,136.855 234.127,131.377 "
   id="polygon965" />
			<polygon
   fill="#d3d3d3"
   points="246.232,135.746 245.347,136.855 234.127,132.508 234.127,131.377 "
   id="polygon967" />
			<g
   id="g971">
				<path
   fill="#eea886"
   d="m 234.715,129.145 c 0,0 1.416,-0.221 2.393,-0.449 0.759,-0.176 2.641,0.066 3.12,0.553 0.48,0.486 2.005,3.871 2.292,4.078 0.289,0.207 -0.146,0.686 -0.653,0.445 0,0 -0.466,1.48 -1.612,0.926 -1.147,-0.555 -1.927,-1.766 -2.528,-1.979 -0.601,-0.213 -4.101,-1.289 -4.101,-1.289 0,0 0.186,-2.647 1.089,-2.285 z"
   id="path969" />
			</g>
			<g
   id="g975">
				<path
   fill="#eea886"
   d="m 239.883,129.027 c 0,0 0.908,0.439 1.146,0.633 0.237,0.197 1.199,0.918 1.434,1.086 0.232,0.172 -0.354,0.652 -2.074,-0.092 -1.719,-0.746 -0.506,-1.627 -0.506,-1.627 z"
   id="path973" />
			</g>
			<polygon
   fill="#d3d3d3"
   points="267.393,135.766 245.347,136.855 252.087,118.451 273.816,118.807 "
   id="polygon977" />
			
				<ellipse
   transform="matrix(-0.8946,-0.4468,0.4468,-0.8946,436.9802,357.8817)"
   fill="#f7f7f7"
   cx="260.68799"
   cy="127.417"
   rx="1.8430001"
   ry="2.6849999"
   id="ellipse979" />
		</g>
		
		
		
		
		
		
	</g>
</g>
</svg>
